<svg xmlns="http://www.w3.org/2000/svg" viewBox="0 0 32 32" id="NightTime">
  <g fill="#92d6d7" class="color000000 svgShape">
    <path d="M29.71 20.78a1 1 0 0 0-1.16-.18A12.67 12.67 0 0 1 22.76 22 12.75 12.75 0 0 1 11.4 3.45a1 1 0 0 0-1.34-1.34A14.75 14.75 0 1 0 29.89 21.94 1 1 0 0 0 29.71 20.78zM27 10H24a1 1 0 0 1-.8-1.6L25 6H24a1 1 0 0 1 0-2h3a1 1 0 0 1 .8 1.6L26 8h1a1 1 0 0 1 0 2z" fill="#92d6d7" class="color000000 svgShape"></path>
    <path d="M20,17H17a1,1,0,0,1-.89-.55,1,1,0,0,1,.09-1L18,13H17a1,1,0,0,1,0-2h3a1,1,0,0,1,.8,1.6L19,15h1a1,1,0,0,1,0,2Z" fill="#92d6d7" class="color000000 svgShape"></path>
  </g>
</svg>
